# Blender 5.1.0
# www.blender.org
mtllib viewport_mesh.mtl
o Plane
v -0.500000 -0.500000 0.000000
v 0.500000 -0.500000 0.000000
v -0.500000 0.500000 -0.000000
v 0.500000 0.500000 -0.000000
v -0.115690 0.115690 -0.000000
v -0.115690 -0.115690 0.000000
v 0.115690 -0.115690 0.000000
v 0.115690 0.115690 -0.000000
v -0.115690 0.000000 0.000000
v 0.000000 -0.115690 0.000000
v 0.115690 0.000000 0.000000
v 0.000000 0.115690 -0.000000
v -0.500000 0.000000 0.000000
v 0.000000 -0.500000 0.000000
v 0.500000 0.000000 0.000000
v 0.000000 0.500000 -0.000000
v -0.307845 -0.307845 0.000000
v -0.307845 0.307845 -0.000000
v 0.307845 -0.307845 0.000000
v 0.307845 0.307845 -0.000000
v 0.000000 0.307845 -0.000000
v 0.307845 0.000000 0.000000
v 0.000000 -0.307845 0.000000
v -0.307845 0.000000 0.000000
v 0.000000 0.000000 0.000000
vn -0.0000 -0.0000 1.0000
vt 0.910209 0.500000
vt 0.500000 0.910209
vt 0.500000 0.500000
vt 0.500000 1.000000
vt 0.044421 0.955578
vt 0.500000 0.955579
vt 0.000000 0.500000
vt 0.044422 0.044421
vt 0.044422 0.500000
vt 0.500000 0.000000
vt 0.955579 0.044422
vt 0.500000 0.044421
vt 1.000000 0.500000
vt 0.955579 0.955579
vt 0.955579 0.500000
vt 0.910209 0.910209
vt 0.910209 0.089791
vt 0.500000 0.089791
vt 0.089791 0.089791
vt 0.089791 0.500000
vt 0.089791 0.910209
vt 0.000000 1.000000
vt 0.000000 0.000000
vt 1.000000 0.000000
vt 1.000000 1.000000
s 0
f 12/1/1 9/2/1 25/3/1
f 13/4/1 17/5/1 24/6/1
f 14/7/1 19/8/1 23/9/1
f 15/10/1 20/11/1 22/12/1
f 16/13/1 18/14/1 21/15/1
f 21/15/1 5/16/1 12/1/1
f 8/17/1 21/15/1 12/1/1
f 20/11/1 16/13/1 21/15/1
f 22/12/1 8/17/1 11/18/1
f 7/19/1 22/12/1 11/18/1
f 19/8/1 15/10/1 22/12/1
f 23/9/1 7/19/1 10/20/1
f 6/21/1 23/9/1 10/20/1
f 17/5/1 14/7/1 23/9/1
f 24/6/1 6/21/1 9/2/1
f 5/16/1 24/6/1 9/2/1
f 18/14/1 13/4/1 24/6/1
f 25/3/1 6/21/1 10/20/1
f 11/18/1 10/20/1 7/19/1
f 8/17/1 25/3/1 11/18/1
f 12/1/1 5/16/1 9/2/1
f 13/4/1 1/22/1 17/5/1
f 14/7/1 2/23/1 19/8/1
f 15/10/1 4/24/1 20/11/1
f 16/13/1 3/25/1 18/14/1
f 21/15/1 18/14/1 5/16/1
f 8/17/1 20/11/1 21/15/1
f 20/11/1 4/24/1 16/13/1
f 22/12/1 20/11/1 8/17/1
f 7/19/1 19/8/1 22/12/1
f 19/8/1 2/23/1 15/10/1
f 23/9/1 19/8/1 7/19/1
f 6/21/1 17/5/1 23/9/1
f 17/5/1 1/22/1 14/7/1
f 24/6/1 17/5/1 6/21/1
f 5/16/1 18/14/1 24/6/1
f 18/14/1 3/25/1 13/4/1
f 25/3/1 9/2/1 6/21/1
f 11/18/1 25/3/1 10/20/1
f 8/17/1 12/1/1 25/3/1
